<?xml version="1.0" encoding="utf-8"?>
<!-- Generator: Adobe Illustrator 16.0.0, SVG Export Plug-In . SVG Version: 6.00 Build 0)  -->
<!DOCTYPE svg PUBLIC "-//W3C//DTD SVG 1.1//EN" "http://www.w3.org/Graphics/SVG/1.1/DTD/svg11.dtd">
<svg version="1.1" id="Layer_1" xmlns="http://www.w3.org/2000/svg" xmlns:xlink="http://www.w3.org/1999/xlink" x="0px" y="0px"
	 width="192.801px" height="211.703px" viewBox="0 0 192.801 211.703" enable-background="new 0 0 192.801 211.703"
	 xml:space="preserve">
<g>
	<path fill="#C9C9C9" d="M75.755,35.009l-24.47,1.501L26.432,89.706H7.589L0,109.508h17.179L6.178,133.055H40.91l8.369-23.547h18.59
		v23.547h20.835V65.446h9.471V46.314H71.738L75.755,35.009z M56.316,89.706l11.552-32.504v32.504H56.316z"/>
	<polygon fill="#C9C9C9" points="186.958,101.289 134.564,101.35 128.877,18.266 101.965,36.244 101.901,65.429 111.831,65.429 
		111.831,101.376 111.734,132.853 134.671,132.853 136.722,132.875 136.721,132.853 175.299,132.853 	"/>
</g>
<polyline fill="none" stroke="#F9CE06" stroke-width="3.9907" stroke-linejoin="bevel" stroke-miterlimit="10" points="
	111.711,1.428 111.711,1.995 111.711,49.619 "/>
<ellipse transform="matrix(0.9401 -0.341 0.341 0.9401 -11.3128 37.378)" fill="#F9CE06" cx="100.662" cy="50.867" rx="13.296" ry="9.738"/>
<g>
	<path fill="#C9C9C9" d="M23.768,159.075h-4.583l-1.384-3.744h-7.125l-1.384,3.744H4.708l7.556-18.72h3.948L23.768,159.075z
		 M14.261,146.142h-0.045l-2.088,5.445h4.221L14.261,146.142z"/>
	<path fill="#C9C9C9" d="M28.288,152.971c0,2.292,0.612,3.176,2.292,3.176c1.679,0,2.292-0.884,2.292-3.176v-5.537h4.016v6.512
		c0,3.903-1.951,5.469-6.308,5.469c-4.356,0-6.308-1.565-6.308-5.469v-6.512h4.017V152.971z"/>
	<path fill="#C9C9C9" d="M42.154,160.322c0.431,0.704,1.407,1.498,3.154,1.498c1.112,0,2.837-0.658,2.837-2.723v-0.862
		c-0.862,0.952-2.224,1.18-3.812,1.18c-3.404,0-5.786-2.745-5.786-6.149s2.382-6.172,5.786-6.172c1.542,0,2.791,0.499,3.744,1.385
		h0.068v-1.045h4.016v11.958c0,3.902-2.882,5.922-6.853,5.922c-2.427,0-5.218-0.544-6.444-3.381L42.154,160.322z M45.536,155.989
		c1.565,0,2.7-1.134,2.7-2.723c0-1.612-1.203-2.746-2.7-2.746c-1.521,0-2.724,1.134-2.724,2.746
		C42.812,154.855,43.901,155.989,45.536,155.989z"/>
	<path fill="#C9C9C9" d="M54.887,147.434h4.017v1.226h0.045c0.908-0.908,2.065-1.565,3.335-1.565c1.542,0,3.245,0.567,4.062,2.133
		c1.225-1.475,2.587-2.133,3.857-2.133c2.134,0,4.539,1.066,4.539,4.312v7.669h-4.016v-6.58c0-1.157-0.613-2.179-2.042-2.179
		c-1.27,0-1.815,0.93-1.86,1.815v6.944h-4.016v-6.58c0-1.157-0.613-2.179-2.042-2.179c-1.339,0-1.86,1.021-1.86,1.951v6.808h-4.017
		V147.434z"/>
	<path fill="#C9C9C9" d="M80.577,153.811c0,1.793,1.497,2.405,2.519,2.405c1.293,0,1.86-0.249,2.836-1.293l2.904,1.451
		c-1.316,2.201-3.449,3.041-6.036,3.041c-3.517,0-6.399-2.768-6.399-6.149c0-3.404,2.882-6.172,6.399-6.172
		c3.54,0,6.24,2.087,6.24,6.172c0,0.159,0,0.409-0.023,0.544H80.577z M85.115,151.586c-0.182-1.225-1.021-1.883-2.201-1.883
		c-1.384,0-2.155,0.816-2.223,1.883H85.115z"/>
	<path fill="#C9C9C9" d="M90.882,147.434h4.016v1.226h0.045c0.908-0.908,2.065-1.565,3.335-1.565c2.133,0,5.106,1.066,5.106,4.312
		v7.669h-4.017v-6.58c0-1.157-0.794-2.27-2.087-2.27c-1.203,0-2.383,1.112-2.383,2.27v6.58h-4.016V147.434z"/>
	<path fill="#C9C9C9" d="M106.428,143.101h4.016v4.333h2.451v3.063h-2.451v3.699c0,1.09,0.272,1.61,0.908,1.61
		c0.522,0,0.998-0.362,0.998-0.362l0.999,3.244c0,0-1.293,0.727-2.949,0.727c-3.2,0-3.971-2.383-3.971-4.447v-4.471h-1.679v-3.063
		h1.679V143.101z"/>
	<path fill="#C9C9C9" d="M118.046,153.811c0,1.793,1.498,2.405,2.519,2.405c1.293,0,1.86-0.249,2.836-1.293l2.905,1.451
		c-1.316,2.201-3.449,3.041-6.036,3.041c-3.517,0-6.399-2.768-6.399-6.149c0-3.404,2.882-6.172,6.399-6.172
		c3.54,0,6.24,2.087,6.24,6.172c0,0.159,0,0.409-0.023,0.544H118.046z M122.585,151.586c-0.182-1.225-1.021-1.883-2.201-1.883
		c-1.385,0-2.156,0.816-2.223,1.883H122.585z"/>
	<path fill="#C9C9C9" d="M133.343,147.094c1.566,0,2.859,0.521,3.812,1.452v-8.985h4.017v19.514H137.2v-1.316h-0.045
		c-0.862,0.953-2.224,1.656-3.812,1.656c-3.403,0-5.786-2.745-5.786-6.149S129.939,147.094,133.343,147.094z M134.545,155.989
		c1.566,0,2.7-1.134,2.7-2.723c0-1.612-1.203-2.746-2.7-2.746c-1.52,0-2.723,1.134-2.723,2.746
		C131.822,154.855,132.912,155.989,134.545,155.989z"/>
	<path fill="#F9CE06" d="M60.082,182.439h-4.265v-18.72h4.265V182.439z"/>
	<path fill="#F9CE06" d="M62.807,170.799h4.017v1.225h0.045c0.907-0.907,2.064-1.564,3.335-1.564c2.133,0,5.105,1.065,5.105,4.311
		v7.67h-4.016v-6.58c0-1.157-0.794-2.27-2.087-2.27c-1.203,0-2.382,1.112-2.382,2.27v6.58h-4.017V170.799z"/>
	<path fill="#F9CE06" d="M86.658,171.366l-1.316,2.632c0,0-1.362-0.727-2.587-0.727c-0.885,0-1.248,0.16-1.248,0.704
		c0,0.613,0.816,0.794,1.815,1.111c1.542,0.477,3.54,1.34,3.54,3.723c0,3.427-3.132,3.97-5.514,3.97
		c-2.813,0-4.493-1.565-4.493-1.565l1.633-2.745c0,0,1.588,1.339,2.882,1.339c0.567,0,1.249-0.069,1.249-0.84
		c0-0.84-1.271-0.907-2.587-1.589c-1.18-0.612-2.36-1.429-2.36-3.176c0-2.383,2.02-3.744,5.083-3.744
		C85.001,170.459,86.658,171.366,86.658,171.366z"/>
	<path fill="#F9CE06" d="M89.337,166.465h4.017v4.334h2.45v3.063h-2.45v3.698c0,1.09,0.272,1.611,0.907,1.611
		c0.522,0,0.998-0.362,0.998-0.362l0.999,3.243c0,0-1.293,0.727-2.949,0.727c-3.2,0-3.971-2.383-3.971-4.447v-4.47h-1.679v-3.063
		h1.679V166.465z"/>
	<path fill="#F9CE06" d="M97.621,170.799h4.017v1.68h0.045c0,0,1.271-2.02,3.562-2.02c1.498,0,2.542,0.726,2.542,0.726l-1.679,3.404
		c0,0-0.75-0.636-2.087-0.636c-2.087,0-2.382,2.064-2.382,2.359v6.127h-4.017V170.799z"/>
	<path fill="#F9CE06" d="M112.712,176.335c0,2.292,0.613,3.178,2.292,3.178c1.679,0,2.292-0.886,2.292-3.178v-5.536h4.016v6.513
		c0,3.902-1.951,5.468-6.308,5.468s-6.308-1.565-6.308-5.468v-6.513h4.016V176.335z"/>
	<path fill="#F9CE06" d="M123.812,170.799h4.016v1.225h0.045c0.907-0.907,2.064-1.564,3.335-1.564c1.542,0,3.245,0.566,4.062,2.133
		c1.225-1.476,2.587-2.133,3.857-2.133c2.134,0,4.539,1.065,4.539,4.311v7.67h-4.017v-6.58c0-1.157-0.612-2.179-2.042-2.179
		c-1.27,0-1.815,0.931-1.86,1.814v6.944h-4.016v-6.58c0-1.157-0.613-2.179-2.042-2.179c-1.339,0-1.861,1.021-1.861,1.951v6.808
		h-4.016V170.799z"/>
	<path fill="#F9CE06" d="M149.501,177.175c0,1.793,1.498,2.405,2.519,2.405c1.293,0,1.86-0.249,2.836-1.293l2.904,1.451
		c-1.316,2.201-3.449,3.041-6.036,3.041c-3.517,0-6.399-2.768-6.399-6.149c0-3.403,2.882-6.171,6.399-6.171
		c3.54,0,6.24,2.087,6.24,6.171c0,0.159,0,0.409-0.023,0.545H149.501z M154.039,174.951c-0.182-1.226-1.021-1.883-2.201-1.883
		c-1.385,0-2.156,0.816-2.223,1.883H154.039z"/>
	<path fill="#F9CE06" d="M159.806,170.799h4.016v1.225h0.045c0.908-0.907,2.065-1.564,3.335-1.564c2.133,0,5.106,1.065,5.106,4.311
		v7.67h-4.017v-6.58c0-1.157-0.794-2.27-2.087-2.27c-1.203,0-2.383,1.112-2.383,2.27v6.58h-4.016V170.799z"/>
	<path fill="#F9CE06" d="M175.351,166.465h4.017v4.334h2.45v3.063h-2.45v3.698c0,1.09,0.272,1.611,0.907,1.611
		c0.522,0,0.999-0.362,0.999-0.362l0.999,3.243c0,0-1.293,0.727-2.95,0.727c-3.2,0-3.972-2.383-3.972-4.447v-4.47h-1.679v-3.063
		h1.679V166.465z"/>
	<path fill="#F9CE06" d="M192.599,171.366l-1.316,2.632c0,0-1.362-0.727-2.587-0.727c-0.885,0-1.248,0.16-1.248,0.704
		c0,0.613,0.817,0.794,1.816,1.111c1.542,0.477,3.539,1.34,3.539,3.723c0,3.427-3.132,3.97-5.514,3.97
		c-2.813,0-4.492-1.565-4.492-1.565l1.633-2.745c0,0,1.589,1.339,2.882,1.339c0.567,0,1.248-0.069,1.248-0.84
		c0-0.84-1.271-0.907-2.586-1.589c-1.18-0.612-2.36-1.429-2.36-3.176c0-2.383,2.02-3.744,5.083-3.744
		C190.942,170.459,192.599,171.366,192.599,171.366z"/>
	<path fill="#C9C9C9" d="M29.558,202.06h6.445v3.744h-10.71v-18.72h4.265V202.06z"/>
	<path fill="#C9C9C9" d="M43.062,193.823c1.565,0,2.859,0.521,3.812,1.452v-1.112h4.016v11.641h-3.971v-1.316h-0.045
		c-0.863,0.952-2.224,1.656-3.812,1.656c-3.404,0-5.787-2.745-5.787-6.148C37.275,196.591,39.658,193.823,43.062,193.823z
		 M44.265,202.718c1.565,0,2.7-1.135,2.7-2.723c0-1.611-1.203-2.746-2.7-2.746c-1.521,0-2.724,1.135-2.724,2.746
		C41.541,201.583,42.63,202.718,44.265,202.718z"/>
	<path fill="#C9C9C9" d="M61.444,206.144c-1.588,0-2.95-0.704-3.812-1.656h-0.046v1.316h-3.97V186.29h4.016v8.985
		c0.953-0.931,2.246-1.452,3.812-1.452c3.403,0,5.786,2.768,5.786,6.172C67.23,203.398,64.848,206.144,61.444,206.144z
		 M60.242,197.249c-1.499,0-2.701,1.135-2.701,2.746c0,1.588,1.135,2.723,2.701,2.723c1.633,0,2.722-1.135,2.722-2.723
		C62.964,198.384,61.762,197.249,60.242,197.249z"/>
	<path fill="#C9C9C9" d="M75.289,193.823c3.857,0,6.943,2.541,6.943,6.172c0,3.584-2.927,6.148-6.943,6.148
		c-4.198,0-7.011-2.564-7.011-6.148C68.277,196.364,71.363,193.823,75.289,193.823z M75.266,202.718c1.565,0,2.7-1.135,2.7-2.723
		c0-1.611-1.203-2.746-2.7-2.746c-1.52,0-2.724,1.135-2.724,2.746C72.542,201.583,73.632,202.718,75.266,202.718z"/>
	<path fill="#C9C9C9" d="M84.073,194.163h4.016v1.68h0.045c0,0,1.271-2.02,3.562-2.02c1.498,0,2.542,0.726,2.542,0.726l-1.679,3.404
		c0,0-0.749-0.636-2.087-0.636c-2.087,0-2.382,2.064-2.382,2.36v6.126h-4.016V194.163z"/>
	<path fill="#C9C9C9" d="M100.14,193.823c1.565,0,2.859,0.521,3.812,1.452v-1.112h4.016v11.641h-3.971v-1.316h-0.045
		c-0.862,0.952-2.224,1.656-3.812,1.656c-3.404,0-5.786-2.745-5.786-6.148C94.354,196.591,96.736,193.823,100.14,193.823z
		 M101.342,202.718c1.565,0,2.7-1.135,2.7-2.723c0-1.611-1.203-2.746-2.7-2.746c-1.52,0-2.723,1.135-2.723,2.746
		C98.619,201.583,99.708,202.718,101.342,202.718z"/>
	<path fill="#C9C9C9" d="M111.216,189.829h4.016v4.334h2.451v3.063h-2.451v3.698c0,1.089,0.272,1.611,0.908,1.611
		c0.522,0,0.998-0.362,0.998-0.362l0.999,3.244c0,0-1.293,0.726-2.949,0.726c-3.2,0-3.971-2.382-3.971-4.447v-4.47h-1.68v-3.063
		h1.68V189.829z"/>
	<path fill="#C9C9C9" d="M125.672,193.823c3.857,0,6.943,2.541,6.943,6.172c0,3.584-2.927,6.148-6.943,6.148
		c-4.198,0-7.011-2.564-7.011-6.148C118.661,196.364,121.746,193.823,125.672,193.823z M125.649,202.718
		c1.565,0,2.7-1.135,2.7-2.723c0-1.611-1.203-2.746-2.7-2.746c-1.521,0-2.724,1.135-2.724,2.746
		C122.926,201.583,124.015,202.718,125.649,202.718z"/>
	<path fill="#C9C9C9" d="M134.456,194.163h4.017v1.68h0.045c0,0,1.27-2.02,3.562-2.02c1.498,0,2.542,0.726,2.542,0.726l-1.679,3.404
		c0,0-0.75-0.636-2.087-0.636c-2.087,0-2.382,2.064-2.382,2.36v6.126h-4.017V194.163z"/>
	<path fill="#C9C9C9" d="M159.213,194.163l-9.144,17.54h-4.628l4.016-7.715l-5.514-9.825h4.629l3.246,5.968l2.768-5.968H159.213z"/>
</g>
</svg>
