<?xml version="1.0" encoding="utf-8"?>
<!-- Generator: Adobe Illustrator 16.0.0, SVG Export Plug-In . SVG Version: 6.00 Build 0)  -->
<!DOCTYPE svg PUBLIC "-//W3C//DTD SVG 1.1//EN" "http://www.w3.org/Graphics/SVG/1.1/DTD/svg11.dtd">
<svg version="1.1" id="Layer_1" xmlns="http://www.w3.org/2000/svg" xmlns:xlink="http://www.w3.org/1999/xlink" x="0px" y="0px"
	 width="531.241px" height="177.624px" viewBox="0 0 531.241 177.624" enable-background="new 0 0 531.241 177.624"
	 xml:space="preserve">
<g>
	<path fill="#333333" d="M101.13,46.735l-32.667,2.004l-33.179,71.014H10.13L0,146.189h22.933L8.247,177.624h46.366l11.172-31.435
		h24.817v31.435h27.815V87.368h20.643v-25.54H95.767L101.13,46.735z M75.18,119.753l15.422-43.393v43.393H75.18z"/>
	<polygon fill="#333333" points="249.583,135.217 179.638,135.298 172.046,24.383 136.12,48.384 136.034,87.345 149.29,87.345 
		149.29,135.333 149.161,177.354 179.78,177.354 182.519,177.383 182.517,177.354 234.018,177.354 	"/>
</g>
<rect x="146.467" y="1.906" fill="#F9CE06" width="5.327" height="64.333"/>
<ellipse transform="matrix(0.9401 -0.341 0.341 0.9401 -15.102 49.8977)" fill="#F9CE06" cx="134.38" cy="67.906" rx="17.75" ry="13"/>
<g>
	<path fill="#4C4C4C" d="M274.391,79.186h-6.722l-2.03-5.491h-10.45l-2.029,5.491h-6.723l11.082-27.456h5.79L274.391,79.186z
		 M260.448,60.216h-0.066l-3.062,7.987h6.19L260.448,60.216z"/>
	<path fill="#4C4C4C" d="M281.019,70.233c0,3.361,0.898,4.659,3.361,4.659c2.462,0,3.361-1.298,3.361-4.659v-8.12h5.89v9.551
		c0,5.724-2.861,8.02-9.251,8.02s-9.252-2.296-9.252-8.02v-9.551h5.891V70.233z"/>
	<path fill="#4C4C4C" d="M301.357,81.016c0.633,1.031,2.063,2.196,4.626,2.196c1.631,0,4.16-0.965,4.16-3.994v-1.265
		c-1.265,1.398-3.262,1.73-5.591,1.73c-4.992,0-8.486-4.027-8.486-9.019s3.494-9.052,8.486-9.052c2.263,0,4.093,0.732,5.491,2.03
		h0.1v-1.531h5.891v17.538c0,5.724-4.227,8.686-10.051,8.686c-3.561,0-7.654-0.799-9.451-4.958L301.357,81.016z M306.316,74.66
		c2.296,0,3.96-1.664,3.96-3.994c0-2.363-1.764-4.027-3.96-4.027c-2.229,0-3.994,1.664-3.994,4.027
		C302.322,72.996,303.919,74.66,306.316,74.66z"/>
	<path fill="#4C4C4C" d="M320.032,62.113h5.891v1.797h0.066c1.331-1.331,3.028-2.296,4.892-2.296c2.263,0,4.759,0.832,5.957,3.128
		c1.797-2.163,3.794-3.128,5.657-3.128c3.129,0,6.656,1.564,6.656,6.323v11.249h-5.891v-9.651c0-1.697-0.898-3.195-2.995-3.195
		c-1.863,0-2.662,1.364-2.729,2.662v10.184h-5.891v-9.651c0-1.697-0.898-3.195-2.995-3.195c-1.964,0-2.729,1.498-2.729,2.862v9.984
		h-5.891V62.113z"/>
	<path fill="#4C4C4C" d="M357.709,71.465c0,2.629,2.196,3.527,3.694,3.527c1.896,0,2.729-0.366,4.16-1.897l4.26,2.13
		c-1.931,3.229-5.059,4.459-8.853,4.459c-5.158,0-9.385-4.06-9.385-9.019c0-4.992,4.227-9.052,9.385-9.052
		c5.191,0,9.151,3.062,9.151,9.052c0,0.233,0,0.599-0.033,0.799H357.709z M364.366,68.203c-0.267-1.797-1.498-2.762-3.229-2.762
		c-2.03,0-3.161,1.198-3.261,2.762H364.366z"/>
	<path fill="#4C4C4C" d="M372.823,62.113h5.891v1.797h0.066c1.331-1.331,3.028-2.296,4.892-2.296c3.128,0,7.488,1.564,7.488,6.323
		v11.249h-5.891v-9.651c0-1.697-1.165-3.328-3.062-3.328c-1.764,0-3.494,1.631-3.494,3.328v9.651h-5.891V62.113z"/>
	<path fill="#4C4C4C" d="M395.624,55.757h5.891v6.356h3.594v4.493h-3.594v5.424c0,1.598,0.399,2.363,1.331,2.363
		c0.766,0,1.464-0.533,1.464-0.533l1.465,4.759c0,0-1.897,1.065-4.326,1.065c-4.692,0-5.824-3.494-5.824-6.522v-6.556h-2.463v-4.493
		h2.463V55.757z"/>
	<path fill="#4C4C4C" d="M412.665,71.465c0,2.629,2.196,3.527,3.694,3.527c1.896,0,2.729-0.366,4.16-1.897l4.26,2.13
		c-1.931,3.229-5.059,4.459-8.853,4.459c-5.158,0-9.385-4.06-9.385-9.019c0-4.992,4.227-9.052,9.385-9.052
		c5.191,0,9.151,3.062,9.151,9.052c0,0.233,0,0.599-0.033,0.799H412.665z M419.321,68.203c-0.267-1.797-1.498-2.762-3.229-2.762
		c-2.03,0-3.161,1.198-3.261,2.762H419.321z"/>
	<path fill="#4C4C4C" d="M435.099,61.614c2.296,0,4.193,0.765,5.591,2.13V50.565h5.891v28.62h-5.824v-1.93h-0.066
		c-1.265,1.398-3.262,2.429-5.591,2.429c-4.992,0-8.486-4.027-8.486-9.019S430.107,61.614,435.099,61.614z M436.863,74.66
		c2.296,0,3.96-1.664,3.96-3.994c0-2.363-1.764-4.027-3.96-4.027c-2.229,0-3.994,1.664-3.994,4.027
		C432.869,72.996,434.466,74.66,436.863,74.66z"/>
	<path fill="#F9CE06" d="M327.651,113.453h-6.256V85.998h6.256V113.453z"/>
	<path fill="#F9CE06" d="M331.647,96.381h5.891v1.797h0.066c1.331-1.331,3.028-2.296,4.892-2.296c3.128,0,7.488,1.564,7.488,6.323
		v11.249h-5.891v-9.651c0-1.697-1.165-3.328-3.062-3.328c-1.764,0-3.494,1.631-3.494,3.328v9.651h-5.891V96.381z"/>
	<path fill="#F9CE06" d="M366.628,97.213l-1.931,3.86c0,0-1.997-1.065-3.794-1.065c-1.298,0-1.83,0.233-1.83,1.032
		c0,0.898,1.198,1.165,2.662,1.63c2.263,0.699,5.191,1.964,5.191,5.458c0,5.025-4.593,5.824-8.087,5.824
		c-4.126,0-6.589-2.296-6.589-2.296l2.396-4.027c0,0,2.33,1.963,4.227,1.963c0.832,0,1.831-0.1,1.831-1.231
		c0-1.231-1.864-1.331-3.794-2.33c-1.73-0.898-3.461-2.097-3.461-4.659c0-3.494,2.962-5.491,7.454-5.491
		C364.199,95.882,366.628,97.213,366.628,97.213z"/>
	<path fill="#F9CE06" d="M370.558,90.024h5.891v6.356h3.594v4.493h-3.594v5.424c0,1.598,0.399,2.363,1.331,2.363
		c0.766,0,1.464-0.533,1.464-0.533l1.465,4.759c0,0-1.897,1.065-4.326,1.065c-4.692,0-5.824-3.494-5.824-6.522v-6.556h-2.463v-4.493
		h2.463V90.024z"/>
	<path fill="#F9CE06" d="M382.708,96.381h5.891v2.462h0.066c0,0,1.863-2.961,5.225-2.961c2.196,0,3.728,1.064,3.728,1.064
		l-2.463,4.992c0,0-1.099-0.932-3.062-0.932c-3.062,0-3.494,3.028-3.494,3.461v8.985h-5.891V96.381z"/>
	<path fill="#F9CE06" d="M404.841,104.501c0,3.361,0.898,4.659,3.361,4.659c2.462,0,3.361-1.298,3.361-4.659v-8.12h5.89v9.551
		c0,5.724-2.861,8.02-9.251,8.02s-9.252-2.296-9.252-8.02v-9.551h5.891V104.501z"/>
	<path fill="#F9CE06" d="M421.12,96.381h5.891v1.797h0.066c1.331-1.331,3.028-2.296,4.892-2.296c2.263,0,4.759,0.832,5.957,3.128
		c1.797-2.163,3.794-3.128,5.657-3.128c3.129,0,6.656,1.564,6.656,6.323v11.249h-5.891v-9.651c0-1.697-0.898-3.195-2.995-3.195
		c-1.863,0-2.662,1.364-2.729,2.662v10.184h-5.891v-9.651c0-1.697-0.898-3.195-2.995-3.195c-1.964,0-2.729,1.498-2.729,2.862v9.984
		h-5.891V96.381z"/>
	<path fill="#F9CE06" d="M458.797,105.732c0,2.629,2.196,3.527,3.694,3.527c1.896,0,2.729-0.366,4.16-1.897l4.26,2.13
		c-1.931,3.229-5.059,4.459-8.853,4.459c-5.158,0-9.385-4.06-9.385-9.019c0-4.992,4.227-9.052,9.385-9.052
		c5.191,0,9.151,3.062,9.151,9.052c0,0.233,0,0.599-0.033,0.799H458.797z M465.454,102.471c-0.267-1.797-1.498-2.762-3.229-2.762
		c-2.03,0-3.161,1.198-3.261,2.762H465.454z"/>
	<path fill="#F9CE06" d="M473.911,96.381h5.891v1.797h0.066c1.331-1.331,3.028-2.296,4.892-2.296c3.128,0,7.488,1.564,7.488,6.323
		v11.249h-5.891v-9.651c0-1.697-1.165-3.328-3.062-3.328c-1.764,0-3.494,1.631-3.494,3.328v9.651h-5.891V96.381z"/>
	<path fill="#F9CE06" d="M496.71,90.024h5.891v6.356h3.594v4.493h-3.594v5.424c0,1.598,0.399,2.363,1.331,2.363
		c0.766,0,1.464-0.533,1.464-0.533l1.465,4.759c0,0-1.897,1.065-4.326,1.065c-4.692,0-5.824-3.494-5.824-6.522v-6.556h-2.463v-4.493
		h2.463V90.024z"/>
	<path fill="#F9CE06" d="M522.006,97.213l-1.931,3.86c0,0-1.997-1.065-3.794-1.065c-1.298,0-1.83,0.233-1.83,1.032
		c0,0.898,1.198,1.165,2.662,1.63c2.263,0.699,5.191,1.964,5.191,5.458c0,5.025-4.593,5.824-8.087,5.824
		c-4.126,0-6.589-2.296-6.589-2.296l2.396-4.027c0,0,2.33,1.963,4.227,1.963c0.832,0,1.831-0.1,1.831-1.231
		c0-1.231-1.864-1.331-3.794-2.33c-1.73-0.898-3.461-2.097-3.461-4.659c0-3.494,2.962-5.491,7.454-5.491
		C519.577,95.882,522.006,97.213,522.006,97.213z"/>
	<path fill="#4C4C4C" d="M282.882,142.229h9.452v5.491h-15.708v-27.455h6.256V142.229z"/>
	<path fill="#4C4C4C" d="M302.688,130.149c2.296,0,4.193,0.765,5.591,2.13v-1.631h5.891v17.072h-5.824v-1.93h-0.066
		c-1.265,1.398-3.262,2.429-5.591,2.429c-4.992,0-8.486-4.026-8.486-9.018C294.202,134.209,297.696,130.149,302.688,130.149z
		 M304.452,143.194c2.296,0,3.96-1.664,3.96-3.993c0-2.363-1.764-4.027-3.96-4.027c-2.229,0-3.994,1.664-3.994,4.027
		C300.458,141.53,302.055,143.194,304.452,143.194z"/>
	<path fill="#4C4C4C" d="M329.649,148.219c-2.33,0-4.327-1.031-5.591-2.429h-0.067v1.93h-5.823v-28.62h5.891v13.179
		c1.397-1.365,3.294-2.13,5.591-2.13c4.991,0,8.486,4.06,8.486,9.052C338.135,144.193,334.64,148.219,329.649,148.219z
		 M327.885,135.174c-2.197,0-3.961,1.664-3.961,4.027c0,2.329,1.664,3.993,3.961,3.993c2.396,0,3.993-1.664,3.993-3.993
		C331.878,136.838,330.115,135.174,327.885,135.174z"/>
	<path fill="#4C4C4C" d="M349.954,130.149c5.657,0,10.184,3.727,10.184,9.052c0,5.258-4.293,9.018-10.184,9.018
		c-6.157,0-10.283-3.76-10.283-9.018C339.67,133.876,344.196,130.149,349.954,130.149z M349.92,143.194
		c2.296,0,3.96-1.664,3.96-3.993c0-2.363-1.764-4.027-3.96-4.027c-2.229,0-3.994,1.664-3.994,4.027
		C345.926,141.53,347.524,143.194,349.92,143.194z"/>
	<path fill="#4C4C4C" d="M362.836,130.648h5.891v2.462h0.066c0,0,1.863-2.961,5.225-2.961c2.196,0,3.728,1.064,3.728,1.064
		l-2.463,4.992c0,0-1.099-0.932-3.062-0.932c-3.062,0-3.494,3.028-3.494,3.461v8.985h-5.891V130.648z"/>
	<path fill="#4C4C4C" d="M386.402,130.149c2.296,0,4.193,0.765,5.591,2.13v-1.631h5.891v17.072h-5.824v-1.93h-0.066
		c-1.265,1.398-3.262,2.429-5.591,2.429c-4.992,0-8.486-4.026-8.486-9.018C377.916,134.209,381.41,130.149,386.402,130.149z
		 M388.166,143.194c2.296,0,3.96-1.664,3.96-3.993c0-2.363-1.764-4.027-3.96-4.027c-2.229,0-3.994,1.664-3.994,4.027
		C384.171,141.53,385.769,143.194,388.166,143.194z"/>
	<path fill="#4C4C4C" d="M402.646,124.292h5.891v6.356h3.594v4.493h-3.594v5.424c0,1.598,0.399,2.363,1.331,2.363
		c0.766,0,1.464-0.532,1.464-0.532l1.465,4.758c0,0-1.897,1.064-4.326,1.064c-4.692,0-5.824-3.494-5.824-6.522v-6.556h-2.463v-4.493
		h2.463V124.292z"/>
	<path fill="#4C4C4C" d="M423.848,130.149c5.657,0,10.184,3.727,10.184,9.052c0,5.258-4.293,9.018-10.184,9.018
		c-6.157,0-10.283-3.76-10.283-9.018C413.565,133.876,418.09,130.149,423.848,130.149z M423.815,143.194
		c2.296,0,3.96-1.664,3.96-3.993c0-2.363-1.764-4.027-3.96-4.027c-2.229,0-3.994,1.664-3.994,4.027
		C419.821,141.53,421.418,143.194,423.815,143.194z"/>
	<path fill="#4C4C4C" d="M436.731,130.648h5.891v2.462h0.066c0,0,1.863-2.961,5.225-2.961c2.196,0,3.728,1.064,3.728,1.064
		l-2.463,4.992c0,0-1.099-0.932-3.062-0.932c-3.062,0-3.494,3.028-3.494,3.461v8.985h-5.891V130.648z"/>
	<path fill="#4C4C4C" d="M473.042,130.648l-13.411,25.724h-6.789l5.89-11.314l-8.087-14.41h6.789l4.76,8.752l4.06-8.752H473.042z"/>
</g>
</svg>
